<mxfile host="app.diagrams.net" modified="2023-05-06T15:39:00.854Z" agent="Mozilla/5.0 (Macintosh; Intel Mac OS X 10_15_7) AppleWebKit/537.36 (KHTML, like Gecko) Chrome/113.0.0.0 Safari/537.36" etag="4zYys_OujwhQCgU49KMX" version="21.2.1" type="device">
  <diagram name="Page-1" id="2YBvvXClWsGukQMizWep">
    <mxGraphModel dx="2131" dy="835" grid="1" gridSize="10" guides="1" tooltips="1" connect="1" arrows="1" fold="1" page="1" pageScale="1" pageWidth="850" pageHeight="1100" math="0" shadow="0">
      <root>
        <mxCell id="0" />
        <mxCell id="1" parent="0" />
        <mxCell id="rct9ugMY_ZihxJc_UOlt-5" value="&lt;div title=&quot;Page 7&quot; class=&quot;page&quot;&gt;&#xa;			&lt;div class=&quot;layoutArea&quot;&gt;&#xa;				&lt;div class=&quot;column&quot;&gt;&#xa;					&lt;p&gt;&lt;span style=&quot;font-size: 12.000000pt; font-family: &#39;Calibri&#39;; font-weight: 700&quot;&gt;Προβολή βαθμών στα γραπτά των μαθημάτων&#xa;&lt;/span&gt;&lt;/p&gt;&#xa;					&lt;ol style=&quot;list-style-type: decimal&quot;&gt;&#xa;						&lt;li style=&quot;font-size: 12.000000pt; font-family: &#39;Calibri&#39;&quot;&gt;&#xa;							&lt;p&gt;&lt;span style=&quot;font-size: 12.000000pt; font-family: &#39;Calibri&#39;&quot;&gt;Ο μαθητής συνδέεται στην σχολική εφαρμογή, επιλέγει την ιδιότητα του,&#xa;συμπληρώνει τα στοιχεία του και το σύστημα τον εισάγει στον λογαριασμό&#xa;του.&#xa;&lt;/span&gt;&lt;/p&gt;&#xa;						&lt;/li&gt;&#xa;						&lt;li style=&quot;font-size: 12.000000pt; font-family: &#39;Calibri&#39;&quot;&gt;&#xa;							&lt;p&gt;&lt;span style=&quot;font-size: 12.000000pt; font-family: &#39;Calibri&#39;&quot;&gt;Επιλέγει στο αρχικό του μενού την καρτέλα «Προβολή Βαθμών και Γραπτών»&#xa;,ώστε να δει τον βαθμό και το γραπτό του στις εξετάσεις των μαθημάτων&#xa;που παρακολουθεί.&#xa;&lt;/span&gt;&lt;/p&gt;&#xa;						&lt;/li&gt;&#xa;						&lt;li style=&quot;font-size: 12.000000pt; font-family: &#39;Calibri&#39;&quot;&gt;&#xa;							&lt;p&gt;&lt;span style=&quot;font-size: 12.000000pt; font-family: &#39;Calibri&#39;&quot;&gt;Το σύστημα εμφανίζει όλα τα μαθήματα που παρακολουθεί ο μαθητής και&#xa;από δίπλα τον βαθμό (βαθμός πιο πρόσφατης εξέτασης) για κάθε μάθημα .&#xa;&lt;/span&gt;&lt;/p&gt;&#xa;						&lt;/li&gt;&#xa;						&lt;li style=&quot;font-size: 12.000000pt; font-family: &#39;Calibri&#39;&quot;&gt;&#xa;							&lt;p&gt;&lt;span style=&quot;font-size: 12.000000pt; font-family: &#39;Calibri&#39;&quot;&gt;Ο μαθητής επιλέγει το μάθημα στο οποίο επιθυμεί να δει περισσότερες&#xa;λεπτομέρειες σχετικά με τον βαθμό και το γραπτό του.&#xa;&lt;/span&gt;&lt;/p&gt;&#xa;						&lt;/li&gt;&#xa;						&lt;li style=&quot;font-size: 12.000000pt; font-family: &#39;Calibri&#39;&quot;&gt;&#xa;							&lt;p&gt;&lt;span style=&quot;font-size: 12.000000pt; font-family: &#39;Calibri&#39;&quot;&gt;Το σύστημα του δίνει πρόσβαση στο διορθωμένο του γραπτό από τον&#xa;καθηγητή εμφανίζοντας το αντίστοιχο αρχείο σε μορφή Word ή PDF.&#xa;&lt;/span&gt;&lt;/p&gt;&#xa;						&lt;/li&gt;&#xa;						&lt;li style=&quot;font-size: 12.000000pt; font-family: &#39;Calibri&#39;&quot;&gt;&#xa;							&lt;p&gt;&lt;span style=&quot;font-size: 12.000000pt; font-family: &#39;Calibri&#39;&quot;&gt;Ο μαθητής κατεβάζει το αρχείο αυτό ώστε να δει τα λάθη του και τυχόν&#xa;σχόλια πάνω στο γραπτό του&#xa;&lt;/span&gt;&lt;/p&gt;&#xa;						&lt;/li&gt;&#xa;						&lt;li style=&quot;font-size: 12.000000pt; font-family: &#39;Calibri&#39;&quot;&gt;&#xa;							&lt;p&gt;&lt;span style=&quot;font-size: 12.000000pt; font-family: &#39;Calibri&#39;&quot;&gt;Το σύστημα εμφανίζει επιλογή «Συμφωνώ με την Βαθμολογία μου» και&#xa;«Διαφωνώ με την βαθμολογία μου» ώστε να οριστικοποιηθεί ο βαθμός .&#xa;&lt;/span&gt;&lt;/p&gt;&#xa;						&lt;/li&gt;&#xa;						&lt;li style=&quot;font-size: 12.000000pt; font-family: &#39;Calibri&#39;; color: rgb(100.000000%, 0.000000%, 0.000000%)&quot;&gt;&#xa;							&lt;p&gt;&lt;span style=&quot;font-size: 12.000000pt; font-family: &#39;Calibri&#39;; color: rgb(100.000000%, 0.000000%, 0.000000%)&quot;&gt;Ο μαθητής επιλέγει «Συμφωνώ με την Βαθμολογία μου» ,για να δηλώσει ότι&#xa;δεν έχει ένσταση σχετικά με την βαθμολογία του.&#xa;&lt;/span&gt;&lt;/p&gt;&#xa;						&lt;/li&gt;&#xa;						&lt;li style=&quot;font-size: 12.000000pt; font-family: &#39;Calibri&#39;&quot;&gt;&#xa;							&lt;p&gt;&lt;span style=&quot;font-size: 12.000000pt; font-family: &#39;Calibri&#39;&quot;&gt;Το σύστημα επικυρώνει την βαθμολογία του μαθητή .&#xa;&lt;/span&gt;&lt;/p&gt;&#xa;						&lt;/li&gt;&#xa;					&lt;/ol&gt;&#xa;				&lt;/div&gt;&#xa;			&lt;/div&gt;&#xa;		&lt;/div&gt;" style="text;whiteSpace=wrap;html=1;" vertex="1" parent="1">
          <mxGeometry x="-240" y="60" width="560" height="1560" as="geometry" />
        </mxCell>
        <mxCell id="rct9ugMY_ZihxJc_UOlt-6" value="Student" style="shape=umlActor;verticalLabelPosition=bottom;verticalAlign=top;html=1;" vertex="1" parent="1">
          <mxGeometry x="510" y="110" width="30" height="60" as="geometry" />
        </mxCell>
        <mxCell id="rct9ugMY_ZihxJc_UOlt-10" value="Αρχείο γραπτού" style="ellipse;shape=umlEntity;whiteSpace=wrap;html=1;" vertex="1" parent="1">
          <mxGeometry x="1220" y="10" width="80" height="80" as="geometry" />
        </mxCell>
        <mxCell id="rct9ugMY_ZihxJc_UOlt-11" value="Βαθμολογία" style="ellipse;shape=umlEntity;whiteSpace=wrap;html=1;" vertex="1" parent="1">
          <mxGeometry x="1405" y="10" width="80" height="80" as="geometry" />
        </mxCell>
        <mxCell id="rct9ugMY_ZihxJc_UOlt-14" value="" style="endArrow=classic;html=1;rounded=0;" edge="1" parent="1">
          <mxGeometry width="50" height="50" relative="1" as="geometry">
            <mxPoint x="540" y="360.5" as="sourcePoint" />
            <mxPoint x="915" y="360" as="targetPoint" />
            <Array as="points">
              <mxPoint x="915" y="360" />
            </Array>
          </mxGeometry>
        </mxCell>
        <mxCell id="rct9ugMY_ZihxJc_UOlt-15" value="SelectCourse()" style="text;html=1;strokeColor=none;fillColor=none;align=center;verticalAlign=middle;whiteSpace=wrap;rounded=0;" vertex="1" parent="1">
          <mxGeometry x="585" y="325" width="80" height="30" as="geometry" />
        </mxCell>
        <mxCell id="rct9ugMY_ZihxJc_UOlt-26" value="" style="html=1;points=[];perimeter=orthogonalPerimeter;outlineConnect=0;targetShapes=umlLifeline;portConstraint=eastwest;newEdgeStyle={&quot;edgeStyle&quot;:&quot;elbowEdgeStyle&quot;,&quot;elbow&quot;:&quot;vertical&quot;,&quot;curved&quot;:0,&quot;rounded&quot;:0};" vertex="1" parent="1">
          <mxGeometry x="515" y="220" width="25" height="730" as="geometry" />
        </mxCell>
        <mxCell id="rct9ugMY_ZihxJc_UOlt-29" value="" style="html=1;points=[];perimeter=orthogonalPerimeter;outlineConnect=0;targetShapes=umlLifeline;portConstraint=eastwest;newEdgeStyle={&quot;edgeStyle&quot;:&quot;elbowEdgeStyle&quot;,&quot;elbow&quot;:&quot;vertical&quot;,&quot;curved&quot;:0,&quot;rounded&quot;:0};" vertex="1" parent="1">
          <mxGeometry x="745" y="275" width="10" height="80" as="geometry" />
        </mxCell>
        <mxCell id="rct9ugMY_ZihxJc_UOlt-30" value="" style="edgeStyle=elbowEdgeStyle;fontSize=12;html=1;endArrow=blockThin;endFill=1;rounded=0;" edge="1" parent="1">
          <mxGeometry width="160" relative="1" as="geometry">
            <mxPoint x="550" y="280" as="sourcePoint" />
            <mxPoint x="740" y="280" as="targetPoint" />
          </mxGeometry>
        </mxCell>
        <mxCell id="rct9ugMY_ZihxJc_UOlt-32" value="" style="edgeStyle=elbowEdgeStyle;fontSize=12;html=1;endArrow=blockThin;endFill=1;rounded=0;" edge="1" parent="1">
          <mxGeometry width="160" relative="1" as="geometry">
            <mxPoint x="755" y="305" as="sourcePoint" />
            <mxPoint x="920" y="305" as="targetPoint" />
          </mxGeometry>
        </mxCell>
        <mxCell id="rct9ugMY_ZihxJc_UOlt-33" value="displayMyCourses()" style="text;html=1;strokeColor=none;fillColor=none;align=center;verticalAlign=middle;whiteSpace=wrap;rounded=0;" vertex="1" parent="1">
          <mxGeometry x="800" y="280" width="110" height="20" as="geometry" />
        </mxCell>
        <mxCell id="rct9ugMY_ZihxJc_UOlt-35" value="" style="html=1;points=[];perimeter=orthogonalPerimeter;outlineConnect=0;targetShapes=umlLifeline;portConstraint=eastwest;newEdgeStyle={&quot;edgeStyle&quot;:&quot;elbowEdgeStyle&quot;,&quot;elbow&quot;:&quot;vertical&quot;,&quot;curved&quot;:0,&quot;rounded&quot;:0};" vertex="1" parent="1">
          <mxGeometry x="930" y="290" width="10" height="550" as="geometry" />
        </mxCell>
        <mxCell id="rct9ugMY_ZihxJc_UOlt-36" value="" style="html=1;points=[];perimeter=orthogonalPerimeter;outlineConnect=0;targetShapes=umlLifeline;portConstraint=eastwest;newEdgeStyle={&quot;edgeStyle&quot;:&quot;elbowEdgeStyle&quot;,&quot;elbow&quot;:&quot;vertical&quot;,&quot;curved&quot;:0,&quot;rounded&quot;:0};" vertex="1" parent="1">
          <mxGeometry x="1100" y="370" width="10" height="120" as="geometry" />
        </mxCell>
        <mxCell id="rct9ugMY_ZihxJc_UOlt-42" value="" style="edgeStyle=elbowEdgeStyle;fontSize=12;html=1;endArrow=blockThin;endFill=1;rounded=0;" edge="1" parent="1">
          <mxGeometry width="160" relative="1" as="geometry">
            <mxPoint x="535" y="530" as="sourcePoint" />
            <mxPoint x="920" y="530" as="targetPoint" />
          </mxGeometry>
        </mxCell>
        <mxCell id="rct9ugMY_ZihxJc_UOlt-44" value="" style="html=1;points=[];perimeter=orthogonalPerimeter;outlineConnect=0;targetShapes=umlLifeline;portConstraint=eastwest;newEdgeStyle={&quot;edgeStyle&quot;:&quot;elbowEdgeStyle&quot;,&quot;elbow&quot;:&quot;vertical&quot;,&quot;curved&quot;:0,&quot;rounded&quot;:0};" vertex="1" parent="1">
          <mxGeometry x="1275" y="510" width="10" height="70" as="geometry" />
        </mxCell>
        <mxCell id="rct9ugMY_ZihxJc_UOlt-45" value="SelectFile()" style="text;html=1;strokeColor=none;fillColor=none;align=center;verticalAlign=middle;whiteSpace=wrap;rounded=0;" vertex="1" parent="1">
          <mxGeometry x="720" y="480" width="60" height="30" as="geometry" />
        </mxCell>
        <mxCell id="rct9ugMY_ZihxJc_UOlt-46" value="" style="endArrow=classic;html=1;rounded=0;dashed=1;" edge="1" parent="1">
          <mxGeometry width="50" height="50" relative="1" as="geometry">
            <mxPoint x="1270" y="570" as="sourcePoint" />
            <mxPoint x="950" y="570" as="targetPoint" />
          </mxGeometry>
        </mxCell>
        <mxCell id="rct9ugMY_ZihxJc_UOlt-47" value="downloadFile()" style="text;html=1;strokeColor=none;fillColor=none;align=center;verticalAlign=middle;whiteSpace=wrap;rounded=0;" vertex="1" parent="1">
          <mxGeometry x="665" y="590" width="90" height="20" as="geometry" />
        </mxCell>
        <mxCell id="rct9ugMY_ZihxJc_UOlt-62" value=":Student starting screen" style="rounded=0;whiteSpace=wrap;html=1;" vertex="1" parent="1">
          <mxGeometry x="680" y="120" width="120" height="60" as="geometry" />
        </mxCell>
        <mxCell id="rct9ugMY_ZihxJc_UOlt-64" value=": List of student courses screen" style="rounded=0;whiteSpace=wrap;html=1;" vertex="1" parent="1">
          <mxGeometry x="870" y="120" width="120" height="60" as="geometry" />
        </mxCell>
        <mxCell id="rct9ugMY_ZihxJc_UOlt-65" value=":Student Course" style="rounded=0;whiteSpace=wrap;html=1;" vertex="1" parent="1">
          <mxGeometry x="1045" y="120" width="120" height="60" as="geometry" />
        </mxCell>
        <mxCell id="rct9ugMY_ZihxJc_UOlt-66" value="Αρχική Οθόνη μαθητή" style="shape=umlBoundary;whiteSpace=wrap;html=1;" vertex="1" parent="1">
          <mxGeometry x="690" y="20" width="100" height="80" as="geometry" />
        </mxCell>
        <mxCell id="rct9ugMY_ZihxJc_UOlt-67" value="Λίστα μαθημάτων" style="shape=umlBoundary;whiteSpace=wrap;html=1;" vertex="1" parent="1">
          <mxGeometry x="870" y="10" width="100" height="80" as="geometry" />
        </mxCell>
        <mxCell id="rct9ugMY_ZihxJc_UOlt-68" value="Μάθημα" style="ellipse;shape=umlEntity;whiteSpace=wrap;html=1;" vertex="1" parent="1">
          <mxGeometry x="1065" y="10" width="80" height="80" as="geometry" />
        </mxCell>
        <mxCell id="rct9ugMY_ZihxJc_UOlt-69" value=":File" style="rounded=0;whiteSpace=wrap;html=1;" vertex="1" parent="1">
          <mxGeometry x="1210" y="120" width="120" height="60" as="geometry" />
        </mxCell>
        <mxCell id="rct9ugMY_ZihxJc_UOlt-70" value=":Degree" style="rounded=0;whiteSpace=wrap;html=1;" vertex="1" parent="1">
          <mxGeometry x="1385" y="120" width="120" height="60" as="geometry" />
        </mxCell>
        <mxCell id="rct9ugMY_ZihxJc_UOlt-71" value="" style="edgeStyle=elbowEdgeStyle;fontSize=12;html=1;endArrow=blockThin;endFill=1;rounded=0;" edge="1" parent="1">
          <mxGeometry width="160" relative="1" as="geometry">
            <mxPoint x="940" y="380" as="sourcePoint" />
            <mxPoint x="1090" y="380" as="targetPoint" />
          </mxGeometry>
        </mxCell>
        <mxCell id="rct9ugMY_ZihxJc_UOlt-74" value="getCourse()" style="text;html=1;strokeColor=none;fillColor=none;align=center;verticalAlign=middle;whiteSpace=wrap;rounded=0;" vertex="1" parent="1">
          <mxGeometry x="970" y="340" width="60" height="30" as="geometry" />
        </mxCell>
        <mxCell id="rct9ugMY_ZihxJc_UOlt-75" value="" style="edgeStyle=elbowEdgeStyle;fontSize=12;html=1;endArrow=blockThin;endFill=1;rounded=0;dashed=1;" edge="1" parent="1">
          <mxGeometry width="160" relative="1" as="geometry">
            <mxPoint x="1090" y="415" as="sourcePoint" />
            <mxPoint x="940" y="415" as="targetPoint" />
          </mxGeometry>
        </mxCell>
        <mxCell id="rct9ugMY_ZihxJc_UOlt-77" value="returnCourseDetails()" style="text;html=1;strokeColor=none;fillColor=none;align=center;verticalAlign=middle;whiteSpace=wrap;rounded=0;" vertex="1" parent="1">
          <mxGeometry x="960" y="390" width="110" height="20" as="geometry" />
        </mxCell>
        <mxCell id="rct9ugMY_ZihxJc_UOlt-78" value="" style="edgeStyle=elbowEdgeStyle;fontSize=12;html=1;endArrow=blockThin;endFill=1;rounded=0;" edge="1" parent="1">
          <mxGeometry width="160" relative="1" as="geometry">
            <mxPoint x="940" y="544.5" as="sourcePoint" />
            <mxPoint x="1260" y="544.5" as="targetPoint" />
          </mxGeometry>
        </mxCell>
        <mxCell id="rct9ugMY_ZihxJc_UOlt-79" value="getFile()" style="text;html=1;strokeColor=none;fillColor=none;align=center;verticalAlign=middle;whiteSpace=wrap;rounded=0;" vertex="1" parent="1">
          <mxGeometry x="1045" y="505" width="60" height="30" as="geometry" />
        </mxCell>
        <mxCell id="rct9ugMY_ZihxJc_UOlt-80" value="returnFile()" style="text;html=1;strokeColor=none;fillColor=none;align=center;verticalAlign=middle;whiteSpace=wrap;rounded=0;" vertex="1" parent="1">
          <mxGeometry x="1050" y="535" width="60" height="30" as="geometry" />
        </mxCell>
        <mxCell id="rct9ugMY_ZihxJc_UOlt-81" value="" style="edgeStyle=elbowEdgeStyle;fontSize=12;html=1;endArrow=blockThin;endFill=1;rounded=0;" edge="1" parent="1">
          <mxGeometry width="160" relative="1" as="geometry">
            <mxPoint x="540" y="620" as="sourcePoint" />
            <mxPoint x="920" y="620" as="targetPoint" />
          </mxGeometry>
        </mxCell>
        <mxCell id="rct9ugMY_ZihxJc_UOlt-82" value=":Accept Screen" style="rounded=0;whiteSpace=wrap;html=1;" vertex="1" parent="1">
          <mxGeometry x="1200" y="680" width="120" height="60" as="geometry" />
        </mxCell>
        <mxCell id="rct9ugMY_ZihxJc_UOlt-83" value="" style="edgeStyle=elbowEdgeStyle;fontSize=12;html=1;endArrow=blockThin;endFill=1;rounded=0;" edge="1" parent="1">
          <mxGeometry width="160" relative="1" as="geometry">
            <mxPoint x="940" y="800" as="sourcePoint" />
            <mxPoint x="1250" y="800" as="targetPoint" />
          </mxGeometry>
        </mxCell>
        <mxCell id="rct9ugMY_ZihxJc_UOlt-84" value="display()" style="text;html=1;strokeColor=none;fillColor=none;align=center;verticalAlign=middle;whiteSpace=wrap;rounded=0;" vertex="1" parent="1">
          <mxGeometry x="1005" y="770" width="60" height="30" as="geometry" />
        </mxCell>
        <mxCell id="rct9ugMY_ZihxJc_UOlt-85" value="Οθόνη αποδοχής βαθμού" style="shape=umlBoundary;whiteSpace=wrap;html=1;" vertex="1" parent="1">
          <mxGeometry x="1200" y="590" width="100" height="80" as="geometry" />
        </mxCell>
        <mxCell id="rct9ugMY_ZihxJc_UOlt-86" value="" style="html=1;points=[];perimeter=orthogonalPerimeter;outlineConnect=0;targetShapes=umlLifeline;portConstraint=eastwest;newEdgeStyle={&quot;edgeStyle&quot;:&quot;elbowEdgeStyle&quot;,&quot;elbow&quot;:&quot;vertical&quot;,&quot;curved&quot;:0,&quot;rounded&quot;:0};" vertex="1" parent="1">
          <mxGeometry x="1255" y="780" width="10" height="200" as="geometry" />
        </mxCell>
        <mxCell id="rct9ugMY_ZihxJc_UOlt-87" value="" style="html=1;points=[];perimeter=orthogonalPerimeter;outlineConnect=0;targetShapes=umlLifeline;portConstraint=eastwest;newEdgeStyle={&quot;edgeStyle&quot;:&quot;elbowEdgeStyle&quot;,&quot;elbow&quot;:&quot;vertical&quot;,&quot;curved&quot;:0,&quot;rounded&quot;:0};" vertex="1" parent="1">
          <mxGeometry x="1440" y="330" width="10" height="650" as="geometry" />
        </mxCell>
        <mxCell id="rct9ugMY_ZihxJc_UOlt-88" value="" style="edgeStyle=elbowEdgeStyle;fontSize=12;html=1;endArrow=blockThin;endFill=1;rounded=0;" edge="1" parent="1">
          <mxGeometry width="160" relative="1" as="geometry">
            <mxPoint x="1110" y="400" as="sourcePoint" />
            <mxPoint x="1430" y="400" as="targetPoint" />
          </mxGeometry>
        </mxCell>
        <mxCell id="rct9ugMY_ZihxJc_UOlt-89" value="getDegree()" style="text;html=1;strokeColor=none;fillColor=none;align=center;verticalAlign=middle;whiteSpace=wrap;rounded=0;" vertex="1" parent="1">
          <mxGeometry x="1210" y="360" width="60" height="30" as="geometry" />
        </mxCell>
        <mxCell id="rct9ugMY_ZihxJc_UOlt-90" value="" style="edgeStyle=elbowEdgeStyle;fontSize=12;html=1;endArrow=blockThin;endFill=1;rounded=0;" edge="1" parent="1">
          <mxGeometry width="160" relative="1" as="geometry">
            <mxPoint x="1430" y="430" as="sourcePoint" />
            <mxPoint x="1120" y="430" as="targetPoint" />
          </mxGeometry>
        </mxCell>
        <mxCell id="rct9ugMY_ZihxJc_UOlt-91" value="returnDegree()" style="text;html=1;strokeColor=none;fillColor=none;align=center;verticalAlign=middle;whiteSpace=wrap;rounded=0;" vertex="1" parent="1">
          <mxGeometry x="1195" y="405" width="85" height="25" as="geometry" />
        </mxCell>
        <mxCell id="rct9ugMY_ZihxJc_UOlt-93" value="" style="endArrow=classic;html=1;rounded=0;" edge="1" parent="1">
          <mxGeometry width="50" height="50" relative="1" as="geometry">
            <mxPoint x="550" y="870" as="sourcePoint" />
            <mxPoint x="1240" y="870" as="targetPoint" />
          </mxGeometry>
        </mxCell>
        <mxCell id="rct9ugMY_ZihxJc_UOlt-94" value="click &quot;Συμφωνώ με την βαθμολογία μου &quot;" style="text;html=1;strokeColor=none;fillColor=none;align=center;verticalAlign=middle;whiteSpace=wrap;rounded=0;" vertex="1" parent="1">
          <mxGeometry x="659" y="830" width="150" height="30" as="geometry" />
        </mxCell>
        <mxCell id="rct9ugMY_ZihxJc_UOlt-95" value="" style="edgeStyle=elbowEdgeStyle;fontSize=12;html=1;endArrow=blockThin;endFill=1;rounded=0;" edge="1" parent="1">
          <mxGeometry width="160" relative="1" as="geometry">
            <mxPoint x="1265" y="880" as="sourcePoint" />
            <mxPoint x="1430" y="880" as="targetPoint" />
          </mxGeometry>
        </mxCell>
        <mxCell id="rct9ugMY_ZihxJc_UOlt-97" value="finalizeDegree()" style="text;html=1;strokeColor=none;fillColor=none;align=center;verticalAlign=middle;whiteSpace=wrap;rounded=0;" vertex="1" parent="1">
          <mxGeometry x="1300" y="850" width="100" height="20" as="geometry" />
        </mxCell>
        <mxCell id="rct9ugMY_ZihxJc_UOlt-98" value="Alternative" style="shape=umlFrame;whiteSpace=wrap;html=1;pointerEvents=0;" vertex="1" parent="1">
          <mxGeometry x="495" y="820" width="990" height="180" as="geometry" />
        </mxCell>
        <mxCell id="rct9ugMY_ZihxJc_UOlt-102" value="" style="edgeStyle=elbowEdgeStyle;fontSize=12;html=1;endArrow=blockThin;endFill=1;rounded=0;" edge="1" parent="1">
          <mxGeometry width="160" relative="1" as="geometry">
            <mxPoint x="545" y="940" as="sourcePoint" />
            <mxPoint x="1250" y="940" as="targetPoint" />
          </mxGeometry>
        </mxCell>
        <mxCell id="rct9ugMY_ZihxJc_UOlt-104" value="click &quot;Διαφωνώ με την βαθμολογία μου &quot;" style="text;html=1;strokeColor=none;fillColor=none;align=center;verticalAlign=middle;whiteSpace=wrap;rounded=0;" vertex="1" parent="1">
          <mxGeometry x="755" y="910" width="150" height="30" as="geometry" />
        </mxCell>
        <mxCell id="rct9ugMY_ZihxJc_UOlt-105" value="" style="edgeStyle=elbowEdgeStyle;fontSize=12;html=1;endArrow=blockThin;endFill=1;rounded=0;" edge="1" parent="1">
          <mxGeometry width="160" relative="1" as="geometry">
            <mxPoint x="1265" y="960" as="sourcePoint" />
            <mxPoint x="1425" y="960" as="targetPoint" />
          </mxGeometry>
        </mxCell>
        <mxCell id="rct9ugMY_ZihxJc_UOlt-107" value="notFinalizeDegree()" style="text;html=1;align=center;verticalAlign=middle;resizable=0;points=[];autosize=1;strokeColor=none;fillColor=none;" vertex="1" parent="1">
          <mxGeometry x="1265" y="918" width="130" height="30" as="geometry" />
        </mxCell>
        <mxCell id="rct9ugMY_ZihxJc_UOlt-108" value="" style="endArrow=classic;html=1;rounded=0;" edge="1" parent="1">
          <mxGeometry width="50" height="50" relative="1" as="geometry">
            <mxPoint x="540" y="680" as="sourcePoint" />
            <mxPoint x="920" y="680" as="targetPoint" />
          </mxGeometry>
        </mxCell>
        <mxCell id="rct9ugMY_ZihxJc_UOlt-109" value="click &quot;Πρόβλημα με το αρχείο&quot;" style="text;html=1;align=center;verticalAlign=middle;resizable=0;points=[];autosize=1;strokeColor=none;fillColor=none;" vertex="1" parent="1">
          <mxGeometry x="600" y="640" width="190" height="30" as="geometry" />
        </mxCell>
        <mxCell id="rct9ugMY_ZihxJc_UOlt-112" value="Alternative" style="shape=umlFrame;whiteSpace=wrap;html=1;pointerEvents=0;" vertex="1" parent="1">
          <mxGeometry x="486.5" y="590" width="495" height="170" as="geometry" />
        </mxCell>
        <mxCell id="rct9ugMY_ZihxJc_UOlt-115" value="" style="edgeStyle=elbowEdgeStyle;fontSize=12;html=1;endArrow=blockThin;endFill=1;rounded=0;" edge="1" parent="1">
          <mxGeometry width="160" relative="1" as="geometry">
            <mxPoint x="546.5" y="450" as="sourcePoint" />
            <mxPoint x="921.5" y="450" as="targetPoint" />
          </mxGeometry>
        </mxCell>
        <mxCell id="rct9ugMY_ZihxJc_UOlt-116" value="DeleteCourse()" style="text;html=1;strokeColor=none;fillColor=none;align=center;verticalAlign=middle;whiteSpace=wrap;rounded=0;" vertex="1" parent="1">
          <mxGeometry x="640" y="415" width="80" height="30" as="geometry" />
        </mxCell>
        <mxCell id="rct9ugMY_ZihxJc_UOlt-119" value="" style="edgeStyle=elbowEdgeStyle;fontSize=12;html=1;endArrow=blockThin;endFill=1;rounded=0;" edge="1" parent="1">
          <mxGeometry width="160" relative="1" as="geometry">
            <mxPoint x="940" y="460" as="sourcePoint" />
            <mxPoint x="1100" y="460" as="targetPoint" />
          </mxGeometry>
        </mxCell>
        <mxCell id="rct9ugMY_ZihxJc_UOlt-120" value="deleteCourse()" style="text;html=1;strokeColor=none;fillColor=none;align=center;verticalAlign=middle;whiteSpace=wrap;rounded=0;" vertex="1" parent="1">
          <mxGeometry x="970" y="455" width="90" height="25" as="geometry" />
        </mxCell>
        <mxCell id="rct9ugMY_ZihxJc_UOlt-121" value="Alternative" style="shape=umlFrame;whiteSpace=wrap;html=1;pointerEvents=0;" vertex="1" parent="1">
          <mxGeometry x="490" y="320" width="675" height="170" as="geometry" />
        </mxCell>
      </root>
    </mxGraphModel>
  </diagram>
</mxfile>
